<svg xmlns="http://www.w3.org/2000/svg" xmlns:xlink="http://www.w3.org/1999/xlink" version="1.1" x="0px" y="0px" viewBox="0 0 60 60" enable-background="new 0 0 60 60" xml:space="preserve"><path d="M9,48c-0.55,0-1,0.45-1,1v4c0,0.55,0.45,1,1,1h42c0.55,0,1-0.45,1-1v-4c0-0.55-0.45-1-1-1H30.47l-3.59-8.62  c-0.21-0.51-0.49-0.97-0.83-1.38H45.8c0.55,0,1-0.45,1-1s-0.45-1-1-1h-24c-0.59,0-1.15,0.1-1.69,0.27C19.39,34.96,19,33.5,19,32  c0-3.46,1.97-6.54,5.05-8.06l3.56,3.56c0.19,0.19,0.44,0.29,0.71,0.29s0.52-0.11,0.71-0.29l0.71-0.71l4.95,4.95  c0.19,0.19,0.44,0.29,0.71,0.29c0.27,0,0.52-0.11,0.71-0.29l2.83-2.83c0.19-0.19,0.29-0.44,0.29-0.71s-0.11-0.52-0.29-0.71  l-4.95-4.95l0.71-0.71c0.19-0.19,0.29-0.44,0.29-0.71s-0.11-0.52-0.29-0.71L21.96,7.71c-0.39-0.39-1.02-0.39-1.41,0l-0.71,0.71  l-2.12-2.12C17.53,6.11,17.27,6,17.01,6s-0.52,0.11-0.71,0.29l-2.83,2.83c-0.39,0.39-0.39,1.02,0,1.41l2.12,2.12l-0.71,0.71  c-0.39,0.39-0.39,1.02,0,1.41l4.77,4.77C15.52,22.32,13,26.98,13,32c0,3.25,1.08,6.42,3.04,9.02L13.13,48H9z M36.81,28.21  l-1.41,1.41l-4.24-4.24l1.41-1.41L36.81,28.21z M15.59,9.83l1.41-1.41l1.41,1.41l-1.41,1.41L15.59,9.83z M17.01,14.07l4.24-4.24  l11.31,11.31l-0.71,0.71l-2.83,2.83l-0.71,0.71L17.01,14.07z M15,32c0-4.48,2.32-8.63,6.09-11.01l1.46,1.46C19.14,24.39,17,28,17,32  c0,1.84,0.46,3.63,1.34,5.24c-0.55,0.44-1.01,0.99-1.35,1.63C15.7,36.81,15,34.43,15,32z M18.07,41.35  c0.01-0.01,0.01-0.03,0.02-0.04l0.48-1.16c0.33-0.79,0.93-1.41,1.67-1.78c0,0,0,0,0,0c0,0,0,0,0,0C20.71,38.13,21.24,38,21.8,38  c1.42,0,2.69,0.84,3.23,2.15L28.3,48h-13L18.07,41.35z M29.8,50H50v2H10v-2h3.8H29.8z"></path><path d="M21.8,41.02c-1.64,0-2.98,1.34-2.98,2.98c0,1.64,1.34,2.98,2.98,2.98c1.64,0,2.98-1.34,2.98-2.98  C24.78,42.36,23.44,41.02,21.8,41.02z M21.8,44.98c-0.54,0-0.98-0.44-0.98-0.98c0-0.54,0.44-0.98,0.98-0.98s0.98,0.44,0.98,0.98  C22.78,44.54,22.34,44.98,21.8,44.98z"></path></svg>