<svg xmlns="http://www.w3.org/2000/svg" viewBox="0 0 24 24" x="0px" y="0px"><g><path d="M21.98376,14.41937a.47659.47659,0,0,0-.00231-.05365L19.34766,4.9375A2.48993,2.48993,0,0,0,16.91016,3H15.5a.5.5,0,0,0,0,1h1.41016a1.50248,1.50248,0,0,1,1.46875,1.18408L20.84082,14H3.15918L5.627,5.16211A1.49435,1.49435,0,0,1,7.08984,4H8.5a.5.5,0,0,0,0-1H7.08984A2.48213,2.48213,0,0,0,4.6582,4.91553L2.01855,14.36572A.437.437,0,0,1,2,14.5v4A2.50263,2.50263,0,0,0,4.5,21h15A2.50263,2.50263,0,0,0,22,18.5v-4A.47518.47518,0,0,0,21.98376,14.41937ZM21,18.5A1.50164,1.50164,0,0,1,19.5,20H4.5A1.50164,1.50164,0,0,1,3,18.5V15H21Z"></path><path d="M7,17.5a.49971.49971,0,0,1-.5.5h-1a.5.5,0,0,1,0-1h1A.49971.49971,0,0,1,7,17.5Z"></path><path d="M19,17.5a.49971.49971,0,0,1-.5.5h-9a.5.5,0,0,1,0-1h9A.49971.49971,0,0,1,19,17.5Z"></path><path d="M14.35352,8.35352l-1.99939,1.99939a.5015.5015,0,0,1-.70826,0L9.64648,8.35352a.5.5,0,0,1,.707-.707L11.5,8.793V3a.5.5,0,0,1,1,0V8.793l1.14648-1.14649a.5.5,0,0,1,.707.707Z"></path></g></svg>