<svg xmlns="http://www.w3.org/2000/svg" data-name="Layer 1" viewBox="0 0 128 128" x="0px" y="0px"><title>solid</title><path d="M73.13,4.61,65.87.44a4.16,4.16,0,0,0-3.74,0L54.87,4.61A4.11,4.11,0,0,0,53,7.83v8.33a4.11,4.11,0,0,0,1.87,3.22l7.26,4.17a4.16,4.16,0,0,0,3.74,0l7.26-4.17A4.11,4.11,0,0,0,75,16.17V7.83A4.1,4.1,0,0,0,73.13,4.61ZM71,16l0,0-7,4H64l-7-4,0,0V8l0,0,7-4H64l7,4,0,0Z"></path><circle cx="64" cy="92" r="2"></circle><circle cx="64" cy="100" r="2"></circle><path d="M94.13,23.55a4.16,4.16,0,0,0,3.74,0l7.26-4.17A4.11,4.11,0,0,0,107,16.17V7.83a4.1,4.1,0,0,0-1.87-3.22L97.87.44a4.16,4.16,0,0,0-3.74,0L86.87,4.61A4.11,4.11,0,0,0,85,7.83v8.33a4.11,4.11,0,0,0,1.87,3.22ZM89,8l0,0,7-4H96l7,4,0,0v8l0,0-7,4H96l-7-4,0,0Z"></path><circle cx="76" cy="82" r="2"></circle><circle cx="76" cy="90" r="2"></circle><path d="M41.13,4.61,33.87.44a4.16,4.16,0,0,0-3.74,0L22.87,4.61A4.1,4.1,0,0,0,21,7.83v8.33a4.11,4.11,0,0,0,1.87,3.22l7.26,4.17a4.16,4.16,0,0,0,3.74,0l7.26-4.17A4.11,4.11,0,0,0,43,16.17V7.83A4.11,4.11,0,0,0,41.13,4.61ZM39,16l0,0-7,4H32l-7-4,0,0V8l0,0,7-4H32l7,4,0,0Z"></path><circle cx="52" cy="82" r="2"></circle><circle cx="52" cy="90" r="2"></circle><path d="M9,53.34v61.32A3.4,3.4,0,0,0,12.46,118H55v6H49a2,2,0,0,0,0,4H79a2,2,0,0,0,0-4H72v-6h43.54a3.4,3.4,0,0,0,3.46-3.34V53.34A3.4,3.4,0,0,0,115.54,50H82v4h33v52H13V54H46V50H12.46A3.4,3.4,0,0,0,9,53.34ZM68,124H59v-6h9ZM13,110H115v4H13Z"></path><path d="M69.11,76.34a2,2,0,0,0-2.77.55l-.34.5V30a2,2,0,0,0-4,0V77.39l-.34-.5a2,2,0,1,0-3.33,2.22l4,6a2,2,0,0,0,3.33,0l4-6A2,2,0,0,0,69.11,76.34Z"></path><path d="M74,45.62V67.39l-.34-.5a2,2,0,0,0-3.33,2.22l4,6a2,2,0,0,0,3.33,0l4-6a2,2,0,1,0-3.33-2.22l-.34.5V45.66a1.06,1.06,0,0,1,.14-.33l.09-.09L91.45,31.38a2,2,0,0,0-2.89-2.76L75.37,42.44A4.75,4.75,0,0,0,74,45.62Z"></path><path d="M39.45,28.62a2,2,0,1,0-2.89,2.76L49.84,45.3a1.16,1.16,0,0,1,.16.31V67.39l-.34-.5a2,2,0,1,0-3.33,2.22l4,6a2,2,0,0,0,3.33,0l4-6a2,2,0,0,0-3.33-2.22l-.34.5V45.62a4.75,4.75,0,0,0-1.37-3.18Z"></path></svg>