<svg xmlns="http://www.w3.org/2000/svg" data-name="Layer 1" viewBox="0 0 100 100" x="0px" y="0px"><title>11</title><path d="M90.23,58.41,52.17,20.34A10,10,0,0,0,44,17.47l-21.2,2.24L10.26,7.13A2,2,0,0,0,7.43,10L20,22.53,17.26,44.22a10.07,10.07,0,0,0,2.85,8.32l38,38a10,10,0,0,0,14.14,0l18-18a10,10,0,0,0,0-14.14ZM87.4,69.72l-18,18a6,6,0,0,1-8.49,0l-38-38a6,6,0,0,1-1.71-5l2.66-21.09,20.57-2.18a5.93,5.93,0,0,1,4.87,1.72L87.4,61.23a6,6,0,0,1,0,8.49Z"></path><circle cx="39.04" cy="39.34" r="5.63" transform="translate(-16.38 39.13) rotate(-45)"></circle></svg>